<svg xmlns="http://www.w3.org/2000/svg" viewBox="0 0 12 12"><defs><style>.cls-1{fill:#606060;}</style></defs><title>date</title><g id="Layer_2" data-name="Layer 2"><g id="Layer_1-2" data-name="Layer 1"><path class="cls-1" d="M3,2.25H3a.56.56,0,0,0,.56-.56V.56A.56.56,0,0,0,3,0H3a.56.56,0,0,0-.56.56V1.69A.56.56,0,0,0,3,2.25Z"/><path class="cls-1" d="M8.81,2.25h0a.57.57,0,0,0,.57-.56V.56A.57.57,0,0,0,8.84,0h0a.56.56,0,0,0-.56.56V1.69A.56.56,0,0,0,8.81,2.25Z"/><path class="cls-1" d="M10.5,1.5H10v.19A1.13,1.13,0,0,1,8.84,2.81h0A1.12,1.12,0,0,1,7.69,1.69V1.5H4.16v.19A1.13,1.13,0,0,1,3,2.81H3A1.13,1.13,0,0,1,1.87,1.69V1.5H1.5A1.5,1.5,0,0,0,0,3v7.5A1.5,1.5,0,0,0,1.5,12h9A1.5,1.5,0,0,0,12,10.5V3A1.5,1.5,0,0,0,10.5,1.5Zm.75,9a.76.76,0,0,1-.75.75h-9a.76.76,0,0,1-.75-.75v-6h10.5Z"/><circle class="cls-1" cx="3" cy="6.38" r="0.92"/><path class="cls-1" d="M6,7.57A1.2,1.2,0,1,1,7.19,6.38,1.19,1.19,0,0,1,6,7.57ZM6,5.73a.65.65,0,1,0,.65.65A.65.65,0,0,0,6,5.73Z"/><circle class="cls-1" cx="9" cy="6.38" r="0.92"/><circle class="cls-1" cx="3" cy="9.37" r="0.92"/><circle class="cls-1" cx="6" cy="9.37" r="0.92"/><circle class="cls-1" cx="9" cy="9.37" r="0.92"/></g></g></svg>